<svg version="1.1" id="jpdev_logo_svg" width="254.10316" height="190.9227" viewBox="0 0 254.10316 190.9227" xml:space="preserve" xmlns="http://www.w3.org/2000/svg" xmlns:svg="http://www.w3.org/2000/svg">
  <defs id="defs1">
    <clipPath clipPathUnits="userSpaceOnUse" id="clipPath43">
      <rect style="fill:#666666;fill-opacity:1;stroke:#7b4444;stroke-opacity:1" id="rect44" width="11.5" height="101.75" x="329" y="306.25" />
    </clipPath>
    <clipPath clipPathUnits="userSpaceOnUse" id="clipPath45">
      <rect style="fill:#2b1100;fill-opacity:1;stroke:#7b4444;stroke-opacity:1" id="rect46" width="12" height="104.25" x="341" y="304" />
    </clipPath>
    <clipPath clipPathUnits="userSpaceOnUse" id="clipPath46">
      <path style="font-weight:bold;font-size:36.2806px;line-height:0;font-family:'FiraCode Nerd Font';-inkscape-font-specification:'FiraCode Nerd Font Bold';text-align:center;letter-spacing:-15px;word-spacing:0px;writing-mode:tb-rl;text-orientation:upright;baseline-shift:baseline;text-anchor:middle;display:none;fill:#2b1100;stroke-width:0.971803" d="m 351.00948,328.14425 q 0,3.81505 -1.07214,6.29213 -1.05299,2.47707 -2.87178,3.86929 -1.81881,1.37414 -4.13539,1.93465 -2.29743,0.56051 -4.76716,0.56051 h -7.16033 V 315.7408 h 6.70084 q 2.54632,0 4.92034,0.50627 2.39315,0.48818 4.26939,1.82615 1.89538,1.31991 3.0058,3.76083 1.11043,2.42282 1.11043,6.3102 z m -6.50939,0 q 0,-3.38111 -0.78495,-5.11688 -0.76582,-1.73576 -2.10598,-2.3505 -1.32103,-0.63283 -2.98667,-0.63283 h -1.34017 v 16.47163 h 1.34017 q 1.74222,0 3.06325,-0.70515 1.32101,-0.72324 2.06769,-2.5494 0.74666,-1.82616 0.74666,-5.11687 z m -5.64786,20.64435 v 6.02091 h 9.18973 v 4.15859 h -9.18973 v 6.40062 h 11.08511 v 4.249 h -17.36476 v -25.06003 h 17.34562 l -0.63179,4.23091 z m 1.76136,45.01732 4.99692,-20.43133 h 6.43282 l -7.65811,25.06002 h -7.77298 l -7.61983,-25.06002 h 6.66257 z" id="path46" aria-label="DEV" clip-path="url(#clipPath43)" />
      <path id="lpe_path-effect46" style="font-weight:bold;font-size:36.2806px;line-height:0;font-family:'FiraCode Nerd Font';-inkscape-font-specification:'FiraCode Nerd Font Bold';text-align:center;letter-spacing:-15px;word-spacing:0px;writing-mode:tb-rl;text-orientation:upright;baseline-shift:baseline;text-anchor:middle;fill:#2b1100;stroke-width:0.971803" class="powerclip" d="m 204.64683,261.25823 h 141.17858 v 199.7527 H 204.64683 Z m 146.36265,66.88602 q 0,-3.88738 -1.11043,-6.3102 -1.11042,-2.44092 -3.0058,-3.76083 -1.87624,-1.33797 -4.26939,-1.82615 -2.37402,-0.50627 -4.92034,-0.50627 h -6.70084 v 25.06003 h 7.16033 q 2.46973,0 4.76716,-0.56051 2.31658,-0.56051 4.13539,-1.93465 1.81879,-1.39222 2.87178,-3.86929 1.07214,-2.47708 1.07214,-6.29213 z m -6.50939,0 q 0,-3.38111 -0.78495,-5.11688 -0.76582,-1.73576 -2.10598,-2.3505 -1.32103,-0.63283 -2.98667,-0.63283 h -1.34017 v 16.47163 h 1.34017 q 1.74222,0 3.06325,-0.70515 1.32101,-0.72324 2.06769,-2.5494 0.74666,-1.82616 0.74666,-5.11687 z m -5.64786,20.64435 h 10.43418 l 0.63179,-4.23091 h -17.34562 v 25.06003 h 17.36476 v -4.249 h -11.08511 v -6.40062 h 9.18973 v -4.15859 h -9.18973 z m 1.76136,45.01732 -4.95861,-20.43133 h -6.66257 l 7.61983,25.06002 h 7.77298 l 7.65811,-25.06002 h -6.43282 z" />
    </clipPath>
    <clipPath clipPathUnits="userSpaceOnUse" id="clipPath49">
      <g id="g50" style="display:none">
        <path style="fill:#501616;fill-opacity:1;stroke-width:1.09368" d="m 372.5,305.77164 c -6.25718,10.83775 -17.84229,45.24758 2.25,56.78915 22.28397,12.80053 52.94188,-2.37086 60.25,-28.3927 13.30452,-47.37304 -50.57701,-40.31944 -62.5,-28.39645 z" id="path49" />
        <path style="font-weight:bold;font-size:36.2806px;line-height:0;font-family:'FiraCode Nerd Font';-inkscape-font-specification:'FiraCode Nerd Font Bold';text-align:center;letter-spacing:-15px;word-spacing:0px;writing-mode:tb-rl;text-orientation:upright;baseline-shift:baseline;text-anchor:middle;fill:#ff6600;stroke-width:0.971803" d="m 351.00948,328.14425 q 0,3.81505 -1.07214,6.29213 -1.05299,2.47707 -2.87178,3.86929 -1.81881,1.37414 -4.13539,1.93465 -2.29743,0.56051 -4.76716,0.56051 h -7.16033 V 315.7408 h 6.70084 q 2.54632,0 4.92034,0.50627 2.39315,0.48818 4.26939,1.82615 1.89538,1.31991 3.0058,3.76083 1.11043,2.42282 1.11043,6.3102 z m -6.50939,0 q 0,-3.38111 -0.78495,-5.11688 -0.76582,-1.73576 -2.10598,-2.3505 -1.32103,-0.63283 -2.98667,-0.63283 h -1.34017 v 16.47163 h 1.34017 q 1.74222,0 3.06325,-0.70515 1.32101,-0.72324 2.06769,-2.5494 0.74666,-1.82616 0.74666,-5.11687 z m -5.64786,20.64435 v 6.02091 h 9.18973 v 4.15859 h -9.18973 v 6.40062 h 11.08511 v 4.249 h -17.36476 v -25.06003 h 17.34562 l -0.63179,4.23091 z m 1.76136,45.01732 4.99692,-20.43133 h 6.43282 l -7.65811,25.06002 h -7.77298 l -7.61983,-25.06002 h 6.66257 z" id="path50" aria-label="DEV" clip-path="url(#clipPath45)" />
      </g>
      <path id="lpe_path-effect50" class="powerclip" d="M 335.82422,264.208 H 468.75 V 462.18095 H 335.82422 Z M 372.5,305.77164 c -6.25718,10.83775 -17.84229,45.24758 2.25,56.78915 22.28397,12.80053 52.94188,-2.37086 60.25,-28.3927 13.30452,-47.37304 -50.57701,-40.31944 -62.5,-28.39645 z m -21.49052,22.37261 q 0,-3.88738 -1.11043,-6.3102 -1.11042,-2.44092 -3.0058,-3.76083 -1.87624,-1.33797 -4.26939,-1.82615 -2.37402,-0.50627 -4.92034,-0.50627 h -6.70084 v 25.06003 h 7.16033 q 2.46973,0 4.76716,-0.56051 2.31658,-0.56051 4.13539,-1.93465 1.81879,-1.39222 2.87178,-3.86929 1.07214,-2.47708 1.07214,-6.29213 z m -6.50939,0 q 0,-3.38111 -0.78495,-5.11688 -0.76582,-1.73576 -2.10598,-2.3505 -1.32103,-0.63283 -2.98667,-0.63283 h -1.34017 v 16.47163 h 1.34017 q 1.74222,0 3.06325,-0.70515 1.32101,-0.72324 2.06769,-2.5494 0.74666,-1.82616 0.74666,-5.11687 z m -5.64786,20.64435 h 10.43418 l 0.63179,-4.23091 h -17.34562 v 25.06003 h 17.36476 v -4.249 h -11.08511 v -6.40062 h 9.18973 v -4.15859 h -9.18973 z m 1.76136,45.01732 -4.95861,-20.43133 h -6.66257 l 7.61983,25.06002 h 7.77298 l 7.65811,-25.06002 h -6.43282 z" />
    </clipPath>
  </defs>
  <g id="layer1" transform="translate(-209.64684,-266.25824)">
    <rect style="display:none;fill:#241f1c" id="rect4" width="368.86282" height="211.18922" x="180.90273" y="257.2399" />
    <g id="g51">
      <path style="display:inline;fill:#5f9cbf;fill-opacity:1" d="m 310.42329,409.36113 c 7.56163,-16.60223 13.13227,-100.28176 13.13227,-100.28176 h -37.33333 c -31.5,0.5 -15.11094,-44.79824 -3.75,-42.75397 l 58.35318,10.5 v 171.42858 l -54.6389,7.25 c -21.98718,2.91746 -46.60978,-7.25 -57.69973,-17.87455 -11.08995,-10.62455 -18.83995,-34.62281 -18.83995,-45.24714 0,-10.62434 31.99339,-10.20503 45.11508,-10.12038 0,9.90476 7.25,38.80953 18.3825,43.8889 11.1325,5.07937 31.5143,-4.13307 37.27888,-16.78968 z" id="path4" clip-path="url(#clipPath46)" />
      <path style="display:inline;fill:#ffffff;fill-opacity:1" d="m 340.82422,276.82031 v 171.3749 l 25.33984,7.75 c 37.2793,11.40159 -0.25,-59.84712 -0.25,-59.84712 0,0 97.83594,35.15191 97.83594,-61.34809 0,-96.5 -122.92578,-57.92969 -122.92578,-57.92969 z" id="path5" clip-path="url(#clipPath49)" />
    </g>
  </g>
</svg>