<svg xmlns="http://www.w3.org/2000/svg" width="700" height="700" viewBox="610 148.5 700 700">
  <defs>
    <linearGradient x1="831" y1="956" x2="1049" y2="188" gradientUnits="userSpaceOnUse" id="a">
      <stop offset="0" stop-color="#162840"/>
      <stop offset="1" stop-color="#5cb9f2"/>
    </linearGradient>
  </defs>
  <path transform="scale(1 1.4)" vector-effect="non-scaling-stroke" fill="none" font-family="none" font-weight="none" font-size="none" text-anchor="none" style="mix-blend-mode:normal" d="M610 106.071h700v500H610z"/>
  <g fill="none" fill-rule="none" stroke-width="none" stroke-linecap="none" stroke-linejoin="none" stroke-miterlimit="10" font-family="none" font-weight="none" font-size="none" text-anchor="none" style="mix-blend-mode:normal">
    <path d="M618.559 498.5c0-188.573 152.868-341.441 341.441-341.441s341.441 152.868 341.441 341.441S1148.573 839.941 960 839.941 618.559 687.073 618.559 498.5" fill="url(#a)" fill-rule="nonzero" stroke="#fff" stroke-width="10" stroke-linecap="round" stroke-linejoin="round"/>
    <path d="M908.804 295.723c-2.6 1.53-6.35 5.199-8.336 8.152-2.156 3.21-9.914 34.32-19.292 77.377-17.636 80.963-29.313 130.273-36.86 155.634-5.46 18.349-14.978 40.688-18.29 42.921-3.615 2.44-2.132 4.69 5.368 8.14 24.612 11.313 40.635 2.473 49.597-27.365 2.14-7.128 10.596-40.984 18.793-75.238 29.28-122.39 37.19-150.248 48.148-169.602 3.727-6.58 3.752-7.112.506-10.22-10.321-9.875-30.869-14.956-39.634-9.8m61.482 111.086c-15.019 7.443-15.41 8.596-45.742 134.373-22.878 94.862-27.304 110.391-37.535 131.708l-7.555 15.737 8.934 6.185c15.984 11.065 35.729 10.414 42.827-1.41 1.785-2.975 9.416-33.61 16.957-68.076 29.577-135.177 42.015-182.567 53.015-201.975 5.581-9.846 5.72-10.615 2.418-13.28-3.495-2.82-17.691-7.45-22.575-7.36-1.414.026-6.248 1.87-10.744 4.098m87.104-1.925c-7.301 2.389-14.413 9.697-19.064 19.597-3.894 8.287-12.55 41.412-29.374 112.406-22.253 93.92-27.764 113.288-39.014 137.141l-6.947 14.73 4.783 4.057c5.009 4.248 21.588 10.508 27.83 10.508 7.231 0 17.07-6.202 20.151-12.705 1.72-3.631 9.326-35.357 16.903-70.502 26.282-121.928 38.937-170.61 50.285-193.436 3.71-7.46 6.249-14.442 5.643-15.514-1.151-2.032-19.761-8.64-23.427-8.317-1.154.1-4.65 1.017-7.769 2.035m-276.657 6.22c-8.116 3.346-24.495 10.918-36.398 16.826-26.117 12.965-49.298 21.173-65.41 23.164-11.703 1.445-11.98 1.63-13.218 8.837-1.81 10.53.71 25.625 5.351 32.067 2.192 3.04 22.738 20.797 45.66 39.46 22.921 18.664 44.777 38.01 48.568 42.992l6.894 9.058 9.812-5.427c11.037-6.105 24.317-20.859 24.317-27.018 0-6.348-11.039-15.475-46.697-38.607-18.141-11.77-35.84-23.74-39.332-26.595l-6.35-5.195 32.91-9.914c35.323-10.639 51.934-14.399 63.609-14.399 6.59 0 7.488-.676 8.666-6.529.722-3.59.683-11.564-.088-17.717-3.585-28.61-10.563-32.437-38.294-21.003m350.772 12.96c-11.895 8.672-19.83 20.482-17.744 26.413 1.804 5.13 12.32 13.034 43.419 32.63 34.111 21.493 48.72 31.726 47.381 33.187-3.875 4.228-73.408 23.864-89.838 25.367l-13.3 1.218V554.5c0 23.387 6.774 39.296 16.731 39.296 7.238 0 20.658-5.444 53.113-21.542 35.006-17.363 49.573-22.908 69.098-26.299l14.517-2.521v-14.045c0-22.187-2.032-24.792-46.447-59.576-21.525-16.856-44.072-35.963-50.106-42.457-6.034-6.495-11.909-11.808-13.056-11.808s-7.342 3.832-13.768 8.515" fill="#fefefe" fill-rule="evenodd"/>
  </g>
</svg>
